<svg id="svg" version="1.1" xmlns="http://www.w3.org/2000/svg" xmlns:xlink="http://www.w3.org/1999/xlink" width="400" height="400" viewBox="0, 0, 400,400"><g id="svgg"><path id="path0" d="M149.098 79.902 C 141.234 87.768,134.800 94.384,134.800 94.604 C 134.800 94.824,141.326 101.528,149.302 109.502 L 163.804 124.000 178.502 109.298 L 193.200 94.596 178.698 80.098 C 170.722 72.124,164.016 65.600,163.796 65.600 C 163.576 65.600,156.962 72.036,149.098 79.902 M174.100 104.898 L 164.002 114.996 153.801 104.801 L 143.600 94.606 153.698 84.502 L 163.796 74.398 173.997 84.599 L 184.198 94.800 174.100 104.898 M157.497 88.303 L 151.200 94.609 157.601 101.001 L 164.003 107.394 170.300 101.097 L 176.597 94.800 170.195 88.398 L 163.794 81.997 157.497 88.303 M128.285 100.714 C 125.871 103.164,125.744 102.761,130.402 107.402 L 134.404 111.389 126.111 119.689 L 117.817 127.990 120.000 130.200 L 122.183 132.410 130.486 124.114 L 138.788 115.819 140.708 117.709 C 143.073 120.039,142.996 120.041,145.405 117.595 L 147.381 115.589 145.096 113.304 L 142.811 111.019 140.806 112.994 L 138.802 114.968 136.999 113.199 L 135.197 111.431 136.999 109.602 C 139.319 107.245,139.454 107.637,134.693 102.893 C 129.876 98.092,130.619 98.344,128.285 100.714 M188.686 107.114 L 184.391 111.422 186.396 113.396 L 188.401 115.371 186.511 117.291 L 184.620 119.210 182.614 117.205 L 180.608 115.199 172.306 123.494 L 164.004 131.789 159.801 127.601 L 155.598 123.412 153.507 125.502 L 151.417 127.592 149.305 125.507 L 147.193 123.421 143.001 127.599 L 138.808 131.778 136.803 129.803 L 134.799 127.829 132.599 130.001 L 130.399 132.174 132.401 134.201 L 134.402 136.228 132.401 138.199 L 130.399 140.171 128.285 138.084 L 126.172 135.998 124.197 138.003 L 122.222 140.008 118.204 136.004 C 113.524 131.340,113.958 131.477,111.510 133.889 L 109.592 135.777 105.689 131.889 C 101.138 127.355,101.499 127.463,99.085 129.914 C 96.777 132.257,96.777 132.143,99.091 134.493 L 100.982 136.413 97.097 140.297 L 93.213 144.182 91.237 142.237 C 88.421 139.463,88.000 139.771,88.000 144.600 C 88.000 149.429,88.421 149.737,91.237 146.963 L 93.213 145.018 97.102 148.907 L 100.992 152.797 99.101 154.688 L 97.210 156.580 95.199 154.599 L 93.189 152.619 90.749 155.059 L 88.309 157.499 88.807 161.850 L 89.305 166.200 99.344 176.302 L 109.382 186.403 105.197 190.603 L 101.012 194.802 107.197 200.997 L 113.383 207.192 111.091 209.508 C 108.339 212.289,108.360 212.039,110.632 214.933 C 112.413 217.201,112.486 217.247,113.248 216.557 C 114.011 215.866,114.140 215.954,118.009 219.809 L 121.986 223.771 120.983 224.818 L 119.980 225.865 122.215 227.979 L 124.450 230.093 125.437 229.165 L 126.424 228.238 130.406 232.205 C 133.018 234.808,134.252 236.308,133.994 236.566 C 133.346 237.214,133.498 237.413,135.964 239.142 C 139.729 241.783,140.304 241.343,137.198 238.198 L 135.196 236.171 136.999 234.401 L 138.802 232.632 140.715 234.516 C 143.057 236.823,142.943 236.823,145.293 234.509 L 147.213 232.618 151.100 236.505 L 154.988 240.393 151.838 243.562 L 148.688 246.730 150.644 247.697 C 151.720 248.229,153.199 248.903,153.932 249.194 L 155.263 249.723 159.634 245.366 L 164.005 241.009 169.891 246.894 L 175.776 252.780 174.453 254.145 C 173.726 254.896,173.281 255.601,173.465 255.712 C 174.360 256.252,187.133 258.375,189.597 258.393 C 190.414 258.399,188.608 256.412,179.600 247.400 L 168.605 236.400 172.496 232.510 L 176.386 228.619 178.195 230.395 L 180.004 232.171 178.007 234.193 L 176.010 236.215 186.394 246.594 L 196.778 256.972 195.919 257.886 L 195.061 258.800 197.200 258.800 L 199.339 258.800 198.474 257.879 L 197.609 256.958 199.407 255.193 L 201.205 253.428 203.774 255.974 L 206.342 258.520 209.671 258.243 C 214.373 257.853,214.730 257.368,212.200 254.800 L 210.230 252.800 212.204 250.796 L 214.178 248.792 209.999 244.599 L 205.821 240.407 207.907 238.295 L 209.992 236.183 207.995 234.185 L 205.997 232.188 210.001 228.199 L 214.004 224.211 222.202 232.402 L 230.399 240.592 232.690 238.301 L 234.981 236.011 233.006 234.006 L 231.032 232.002 232.801 230.199 L 234.569 228.397 236.398 230.199 C 238.672 232.437,238.590 232.443,241.115 229.886 L 243.202 227.772 241.197 225.797 L 239.192 223.822 243.289 219.711 L 247.386 215.600 243.003 211.203 L 238.619 206.806 236.601 208.799 L 234.582 210.793 232.695 208.905 L 230.807 207.018 232.800 205.000 L 234.792 202.983 228.401 196.601 L 222.010 190.220 220.005 192.195 L 218.000 194.170 216.086 192.285 C 213.743 189.977,213.857 189.977,211.514 192.285 L 209.600 194.170 207.686 192.285 C 205.343 189.977,205.457 189.977,203.109 192.290 L 201.190 194.180 199.305 192.294 L 197.419 190.408 199.511 188.290 L 201.602 186.172 199.601 184.201 L 197.599 182.229 199.488 180.310 L 201.378 178.392 205.490 182.490 L 209.603 186.589 211.896 184.296 L 214.189 182.003 210.095 177.895 L 206.002 173.788 207.892 171.898 L 209.782 170.007 211.891 172.090 L 214.000 174.173 216.115 172.084 L 218.229 169.996 219.999 171.799 L 221.768 173.602 219.884 175.515 C 217.570 177.864,217.570 177.806,219.914 180.115 C 222.272 182.438,222.197 182.440,224.601 179.999 L 226.571 177.999 224.488 175.889 L 222.405 173.780 226.600 169.600 L 230.795 165.420 228.708 163.307 L 226.621 161.193 230.799 157.001 L 234.978 152.808 233.004 150.804 L 231.030 148.800 233.005 146.795 L 234.980 144.790 232.894 142.703 L 230.808 140.617 232.895 138.504 L 234.982 136.391 232.696 134.104 L 230.409 131.818 228.295 133.907 L 226.180 135.995 222.201 132.001 L 218.221 128.006 220.308 125.893 L 222.394 123.781 218.091 119.491 L 213.789 115.202 211.694 117.296 L 209.600 119.390 207.509 117.299 L 205.417 115.208 203.399 117.201 L 201.380 119.195 197.396 115.196 L 193.413 111.198 195.302 109.308 L 197.192 107.419 199.309 109.510 L 201.426 111.601 203.604 109.396 L 205.782 107.191 203.491 104.900 L 201.200 102.609 199.109 104.701 L 197.017 106.792 194.999 104.799 L 192.981 102.806 188.686 107.114 M113.696 115.304 C 104.476 124.532,104.984 123.623,107.607 126.207 L 109.614 128.184 118.099 119.699 L 126.584 111.214 124.607 109.207 C 122.019 106.579,122.910 106.081,113.696 115.304 M199.309 130.490 L 201.428 128.398 203.309 130.308 L 205.191 132.219 199.091 138.310 L 192.990 144.401 191.099 142.509 L 189.207 140.618 191.295 138.504 L 193.382 136.391 191.096 134.104 L 188.809 131.818 186.696 133.905 L 184.582 135.993 182.695 134.105 L 180.807 132.218 182.890 130.109 L 184.973 128.000 182.890 125.891 L 180.807 123.782 182.699 121.891 L 184.590 119.999 190.891 126.290 L 197.191 132.582 199.309 130.490 M157.107 138.294 L 155.018 140.409 157.105 142.496 L 159.192 144.583 157.199 146.601 L 155.206 148.619 159.599 152.999 L 163.992 157.378 165.996 155.404 L 168.000 153.430 170.005 155.405 L 172.011 157.381 174.296 155.096 L 176.581 152.811 174.605 150.805 L 172.630 148.800 174.515 146.886 C 176.823 144.543,176.823 144.657,174.510 142.309 L 172.620 140.390 174.506 138.505 L 176.392 136.619 178.510 138.711 L 180.628 140.802 182.599 138.801 L 184.571 136.799 186.490 138.688 L 188.408 140.578 184.310 144.690 L 180.211 148.803 182.504 151.096 L 184.797 153.389 188.910 149.289 L 193.024 145.190 194.800 147.000 L 196.576 148.809 192.688 152.712 C 188.153 157.264,188.280 156.845,190.690 159.291 L 192.580 161.210 190.695 163.095 L 188.810 164.980 186.800 163.000 L 184.789 161.019 182.498 163.311 L 180.207 165.602 184.498 169.893 L 188.789 174.184 190.908 172.091 L 193.028 169.998 194.911 171.909 L 196.794 173.821 192.796 177.804 L 188.797 181.788 182.598 175.598 L 176.400 169.409 174.200 171.609 L 172.000 173.809 178.395 180.195 L 184.790 186.580 186.800 184.600 L 188.810 182.620 190.695 184.505 L 192.580 186.390 190.599 188.401 L 188.617 190.413 192.902 194.698 L 197.187 198.983 199.199 197.001 L 201.210 195.020 203.095 196.905 L 204.980 198.790 203.000 200.800 L 201.020 202.810 203.110 204.900 L 205.200 206.991 199.109 213.091 L 193.017 219.192 190.904 217.105 L 188.791 215.018 186.701 217.108 L 184.612 219.198 180.708 215.309 L 176.805 211.420 178.892 209.307 L 180.979 207.193 176.796 202.996 L 172.612 198.798 174.702 196.707 L 176.792 194.617 174.710 192.509 L 172.629 190.401 174.605 188.395 L 176.581 186.389 174.292 184.100 L 172.003 181.811 167.894 185.906 L 163.786 190.001 159.894 186.094 L 156.002 182.188 162.001 176.199 C 168.917 169.294,168.595 170.027,165.913 167.312 L 163.826 165.199 161.710 167.289 L 159.593 169.379 155.401 165.201 L 151.208 161.022 149.199 163.001 L 147.190 164.980 145.301 163.091 L 143.412 161.202 147.595 157.005 L 151.778 152.808 149.804 150.804 L 147.830 148.800 149.805 146.795 L 151.780 144.790 149.694 142.703 L 147.608 140.617 149.690 138.509 L 151.773 136.400 149.690 134.291 L 147.607 132.182 149.497 130.292 L 151.388 128.402 155.291 132.291 L 159.195 136.180 157.107 138.294 M178.318 130.516 L 180.002 132.232 178.201 133.999 L 176.400 135.767 174.599 133.999 L 172.798 132.232 174.482 130.516 C 175.409 129.572,176.272 128.800,176.400 128.800 C 176.528 128.800,177.391 129.572,178.318 130.516 M167.806 144.394 L 163.821 148.394 161.909 146.511 L 159.998 144.628 162.084 142.515 L 164.171 140.401 162.226 138.427 L 160.282 136.452 162.006 134.393 L 163.729 132.334 167.760 136.365 L 171.790 140.395 167.806 144.394 M142.912 136.712 L 146.810 140.624 145.026 142.375 L 143.242 144.125 139.675 140.868 C 134.554 136.193,134.770 136.669,136.819 134.581 C 138.998 132.360,138.351 132.134,142.912 136.712 M218.001 136.601 L 221.787 140.403 219.892 142.297 L 217.997 144.192 214.108 140.303 L 210.219 136.414 211.993 134.607 C 214.201 132.357,213.564 132.146,218.001 136.601 M228.406 138.606 L 230.178 140.412 228.289 142.301 L 226.400 144.189 224.511 142.301 L 222.622 140.412 224.394 138.606 C 225.369 137.613,226.272 136.800,226.400 136.800 C 226.528 136.800,227.431 137.613,228.406 138.606 M128.097 150.893 L 126.002 152.989 130.205 157.205 L 134.409 161.422 132.494 163.308 L 130.579 165.193 126.399 160.999 L 122.220 156.805 120.106 158.893 L 117.992 160.981 116.101 159.090 L 114.210 157.199 116.301 155.108 L 118.392 153.017 116.307 150.906 L 114.221 148.794 118.206 144.794 L 122.190 140.795 126.191 144.796 L 130.193 148.798 128.097 150.893 M240.890 146.509 C 238.359 149.072,238.363 149.004,240.605 151.205 L 242.410 152.976 238.311 157.090 L 234.211 161.203 236.506 163.497 L 238.800 165.791 245.000 159.600 C 248.410 156.195,251.200 153.224,251.200 152.998 C 251.200 152.771,249.350 150.742,247.090 148.489 L 242.979 144.393 240.890 146.509 M136.806 147.006 L 138.578 148.812 136.689 150.701 L 134.800 152.589 132.911 150.701 L 131.022 148.812 132.794 147.006 C 133.769 146.013,134.672 145.200,134.800 145.200 C 134.928 145.200,135.831 146.013,136.806 147.006 M144.800 150.600 L 143.022 152.412 141.222 150.612 L 139.422 148.812 141.200 147.000 L 142.978 145.188 144.778 146.988 L 146.578 148.788 144.800 150.600 M211.601 147.001 L 213.368 148.802 211.394 150.806 L 209.419 152.811 211.619 155.011 L 213.819 157.211 215.910 155.248 C 218.443 152.870,218.434 153.068,216.110 150.709 L 214.220 148.790 216.109 146.901 L 217.998 145.013 221.996 148.996 L 225.995 152.980 223.911 155.090 L 221.827 157.200 223.910 159.309 L 225.993 161.418 224.105 163.305 L 222.218 165.193 220.106 163.107 L 217.993 161.021 213.886 165.115 L 209.778 169.208 207.888 167.289 L 205.997 165.369 207.799 163.601 C 210.019 161.422,210.020 161.454,207.715 159.114 C 205.390 156.754,205.410 156.753,202.999 159.201 L 201.029 161.201 203.116 163.315 L 205.202 165.428 203.291 167.311 L 201.379 169.194 197.395 165.195 L 193.411 161.196 201.402 153.198 C 205.797 148.799,209.492 145.200,209.613 145.200 C 209.734 145.200,210.629 146.010,211.601 147.001 M111.401 159.199 L 109.420 161.210 111.506 163.297 L 113.592 165.383 111.505 167.496 L 109.418 169.609 111.704 171.896 L 113.991 174.182 116.104 172.095 L 118.218 170.007 120.105 171.895 L 121.993 173.782 119.911 175.890 L 117.829 177.999 119.804 180.004 L 121.780 182.010 119.888 183.902 L 117.996 185.794 105.701 173.499 L 93.406 161.204 95.299 159.312 L 97.192 157.419 99.309 159.510 L 101.426 161.601 103.599 159.401 L 105.773 157.200 103.690 155.091 L 101.607 152.982 103.500 151.090 L 105.392 149.197 109.387 153.192 L 113.382 157.187 111.401 159.199 M240.698 171.502 C 232.834 179.368,226.400 185.984,226.400 186.204 C 226.400 186.424,232.926 193.128,240.902 201.102 L 255.404 215.600 270.102 200.898 L 284.800 186.196 270.298 171.698 C 262.322 163.724,255.616 157.200,255.396 157.200 C 255.176 157.200,248.562 163.636,240.698 171.502 M140.806 159.406 L 142.578 161.212 140.689 163.101 L 138.800 164.989 136.911 163.101 L 135.022 161.212 136.794 159.406 C 137.769 158.413,138.672 157.600,138.800 157.600 C 138.928 157.600,139.831 158.413,140.806 159.406 M120.006 163.806 L 121.778 165.612 119.889 167.501 L 118.000 169.389 116.111 167.501 L 114.222 165.612 115.994 163.806 C 116.969 162.813,117.872 162.000,118.000 162.000 C 118.128 162.000,119.031 162.813,120.006 163.806 M132.406 167.806 L 134.178 169.612 132.289 171.501 L 130.400 173.389 128.511 171.501 L 126.622 169.612 128.394 167.806 C 129.369 166.813,130.272 166.000,130.400 166.000 C 130.528 166.000,131.431 166.813,132.406 167.806 M140.806 167.806 L 142.578 169.612 140.689 171.501 L 138.800 173.389 136.911 171.501 L 135.022 169.612 136.794 167.806 C 137.769 166.813,138.672 166.000,138.800 166.000 C 138.928 166.000,139.831 166.813,140.806 167.806 M265.503 196.297 L 255.406 206.400 245.303 196.303 L 235.200 186.206 245.297 176.103 L 255.394 166.000 265.497 176.097 L 275.600 186.194 265.503 196.297 M153.207 172.207 L 154.981 174.014 151.092 177.903 L 147.203 181.792 145.308 179.897 L 143.413 178.003 147.199 174.201 C 151.636 169.746,150.999 169.957,153.207 172.207 M249.097 179.903 L 242.800 186.209 249.201 192.601 L 255.603 198.994 261.900 192.697 L 268.197 186.400 261.795 179.998 L 255.394 173.597 249.097 179.903 M132.400 176.200 C 134.578 178.419,134.546 178.420,136.891 176.110 L 138.810 174.220 140.695 176.105 L 142.580 177.990 140.600 180.000 L 138.619 182.011 140.904 184.296 L 143.189 186.581 145.200 184.600 L 147.210 182.620 149.095 184.505 L 150.980 186.390 148.999 188.401 L 147.017 190.413 151.302 194.698 L 155.587 198.983 157.599 197.001 L 159.610 195.020 161.500 196.910 L 163.390 198.800 157.204 204.996 L 151.019 211.191 153.106 213.304 L 155.193 215.418 153.305 217.305 L 151.418 219.193 149.309 217.110 L 147.200 215.027 145.091 217.110 L 142.982 219.193 141.095 217.305 L 139.207 215.418 141.289 213.310 L 143.371 211.201 141.397 209.197 L 139.423 207.192 143.311 203.289 C 147.874 198.709,147.749 199.181,145.110 196.509 L 143.021 194.393 138.909 198.490 L 134.798 202.588 132.909 200.699 L 131.020 198.810 132.910 196.891 C 135.359 194.405,135.694 195.105,128.706 188.106 L 122.613 182.003 126.398 178.202 C 130.835 173.747,130.200 173.958,132.400 176.200 M92.000 177.257 C 92.000 178.399,96.395 190.800,96.800 190.800 C 96.924 190.800,98.053 189.761,99.310 188.491 L 101.595 186.182 96.797 181.397 C 94.099 178.706,92.000 176.895,92.000 177.257 M124.115 196.486 L 122.229 198.401 120.314 196.515 L 118.399 194.629 120.285 192.714 L 122.171 190.799 124.086 192.685 L 126.001 194.571 124.115 196.486 M170.006 197.006 L 171.778 198.812 169.889 200.701 L 168.000 202.589 166.111 200.701 L 164.222 198.812 165.994 197.006 C 166.969 196.013,167.872 195.200,168.000 195.200 C 168.128 195.200,169.031 196.013,170.006 197.006 M211.606 197.006 L 213.378 198.812 211.489 200.701 L 209.600 202.589 207.711 200.701 L 205.822 198.812 207.594 197.006 C 208.569 196.013,209.472 195.200,209.600 195.200 C 209.728 195.200,210.631 196.013,211.606 197.006 M224.115 204.886 L 222.229 206.801 220.314 204.915 L 218.399 203.029 220.285 201.114 L 222.171 199.199 224.086 201.085 L 226.001 202.971 224.115 204.886 M136.717 205.315 L 138.400 207.030 136.485 208.917 L 134.569 210.803 132.801 209.001 L 131.033 207.200 132.800 205.400 C 134.940 203.219,134.666 203.225,136.717 205.315 M169.908 209.501 L 171.999 207.410 173.890 209.300 L 175.780 211.190 173.804 213.196 L 171.829 215.201 173.916 217.315 L 176.002 219.428 174.092 221.309 L 172.181 223.191 166.202 217.202 L 160.222 211.212 161.996 209.404 L 163.771 207.596 165.794 209.594 L 167.817 211.592 169.908 209.501 M228.001 217.399 L 226.008 219.417 228.099 221.508 L 230.190 223.599 228.294 225.496 L 226.397 227.392 222.507 223.502 L 218.618 219.613 220.594 217.606 L 222.571 215.599 220.489 213.490 L 218.407 211.382 220.297 209.492 L 222.188 207.602 226.091 211.491 L 229.995 215.380 228.001 217.399 M236.515 217.286 L 234.629 219.201 232.714 217.315 L 230.799 215.429 232.685 213.514 L 234.571 211.599 236.486 213.485 L 238.401 215.371 236.515 217.286 M136.718 213.716 L 138.402 215.432 136.601 217.199 L 134.800 218.967 132.999 217.199 L 131.198 215.432 132.882 213.716 C 133.809 212.772,134.672 212.000,134.800 212.000 C 134.928 212.000,135.791 212.772,136.718 213.716 M211.513 213.711 L 213.192 215.423 209.284 219.316 L 205.376 223.210 203.600 221.400 L 201.825 219.591 205.604 215.796 C 210.025 211.357,209.414 211.572,211.513 213.711 M128.205 225.585 L 126.400 227.389 124.511 225.501 L 122.622 223.612 124.396 221.804 L 126.169 219.997 128.090 221.888 L 130.010 223.780 128.205 225.585 M151.208 227.787 L 147.203 231.792 145.308 229.897 L 143.413 228.002 147.396 224.004 L 151.379 220.006 153.296 221.894 L 155.213 223.782 151.208 227.787 M186.605 225.585 L 184.800 227.389 182.911 225.501 L 181.022 223.612 182.796 221.804 L 184.569 219.997 186.490 221.888 L 188.410 223.780 186.605 225.585 M161.518 222.116 L 163.202 223.832 161.401 225.599 L 159.600 227.367 157.799 225.599 L 155.998 223.832 157.682 222.116 C 158.609 221.172,159.472 220.400,159.600 220.400 C 159.728 220.400,160.591 221.172,161.518 222.116 M140.800 226.200 L 142.567 228.000 140.799 229.801 L 139.031 231.603 137.115 229.717 L 135.200 227.830 136.883 226.115 C 138.934 224.025,138.660 224.019,140.800 226.200 M161.501 233.889 L 159.612 235.778 157.804 234.004 L 155.997 232.231 157.888 230.310 L 159.780 228.390 161.585 230.195 L 163.389 232.000 161.501 233.889 M194.915 234.086 L 193.029 236.001 191.114 234.115 L 189.199 232.229 191.085 230.314 L 192.971 228.399 194.886 230.285 L 196.801 232.171 194.915 234.086 M203.096 250.693 L 201.200 252.590 195.204 246.604 L 189.209 240.619 191.096 238.703 L 192.983 236.787 198.988 242.791 L 204.993 248.796 203.096 250.693 M219.885 242.314 C 217.562 244.672,217.560 244.597,220.001 247.001 L 222.001 248.971 224.201 246.799 L 226.401 244.626 224.314 242.513 C 221.799 239.967,222.180 239.984,219.885 242.314 M161.844 250.355 L 160.326 251.910 163.577 252.992 C 168.475 254.624,169.308 253.858,166.086 250.685 C 163.774 248.408,163.747 248.406,161.844 250.355 M47.600 295.974 C 41.943 297.015,38.798 300.263,38.801 305.060 C 38.805 309.905,41.160 311.765,49.870 313.801 C 51.511 314.184,53.042 314.804,53.444 315.248 C 55.561 317.588,48.900 318.272,43.872 316.230 C 42.372 315.621,41.098 315.185,41.041 315.261 C 40.553 315.917,38.308 321.641,38.473 321.807 C 39.125 322.458,43.877 323.734,47.000 324.097 C 56.438 325.192,62.600 321.610,62.600 315.029 C 62.600 310.210,60.833 308.638,53.331 306.783 C 48.543 305.599,47.305 304.945,47.735 303.825 C 48.372 302.166,51.667 302.000,55.882 303.415 C 57.544 303.973,58.949 304.378,59.004 304.315 C 59.447 303.804,61.528 298.207,61.370 297.951 C 60.544 296.615,51.315 295.290,47.600 295.974 M76.018 296.037 C 62.760 298.636,60.146 316.720,72.177 322.606 C 78.073 325.491,85.788 324.582,90.439 320.454 L 92.086 318.993 89.277 316.496 C 86.131 313.701,86.026 313.661,84.962 314.855 C 80.971 319.335,73.800 316.216,73.800 310.000 C 73.800 303.643,80.054 300.911,84.889 305.157 L 86.268 306.367 89.157 303.730 L 92.047 301.093 90.980 299.979 C 87.806 296.666,81.407 294.981,76.018 296.037 M180.000 296.122 C 165.388 299.484,164.384 319.188,178.600 323.609 C 179.529 323.898,181.156 325.010,182.480 326.262 C 187.578 331.083,194.544 332.127,199.185 328.765 C 201.028 327.430,201.062 327.602,198.322 324.422 L 196.844 322.707 195.768 323.554 C 194.527 324.530,192.136 324.680,191.005 323.853 C 190.305 323.341,190.358 323.258,191.828 322.564 C 198.970 319.196,201.445 308.938,196.806 301.934 C 193.679 297.214,186.319 294.669,180.000 296.122 M254.418 296.037 C 241.160 298.636,238.546 316.720,250.577 322.606 C 256.473 325.491,264.188 324.582,268.839 320.454 L 270.486 318.993 267.677 316.496 C 264.531 313.701,264.426 313.661,263.362 314.855 C 259.371 319.335,252.200 316.216,252.200 310.000 C 252.200 303.643,258.454 300.911,263.289 305.157 L 264.668 306.367 267.557 303.730 L 270.447 301.093 269.380 299.979 C 266.206 296.666,259.807 294.981,254.418 296.037 M283.200 296.122 C 267.146 299.815,268.035 321.352,284.352 324.047 C 297.887 326.282,307.271 312.902,299.935 301.828 C 296.861 297.186,289.494 294.675,283.200 296.122 M97.480 309.900 C 94.245 317.325,91.599 323.535,91.599 323.700 C 91.600 323.865,93.626 324.000,96.102 324.000 L 100.604 324.000 101.535 321.600 L 102.465 319.200 107.784 319.200 L 113.102 319.200 114.000 321.600 L 114.898 324.000 119.618 324.000 L 124.339 324.000 120.637 315.500 C 118.601 310.825,115.891 304.615,114.615 301.700 L 112.295 296.400 107.828 296.400 L 103.361 296.400 97.480 309.900 M126.400 310.200 L 126.400 324.000 130.790 324.000 L 135.180 324.000 135.290 317.822 L 135.400 311.643 140.600 317.822 L 145.799 324.000 149.500 324.000 L 153.200 324.000 153.200 310.200 L 153.200 296.400 148.810 296.400 L 144.420 296.400 144.310 302.768 L 144.200 309.137 139.000 302.773 L 133.800 296.410 130.100 296.405 L 126.400 296.400 126.400 310.200 M202.800 310.160 L 202.800 324.000 207.400 324.000 L 212.000 324.000 212.000 320.400 L 212.000 316.800 213.190 316.800 C 214.242 316.800,214.659 317.216,216.800 320.400 L 219.221 324.000 224.056 324.000 L 228.892 324.000 228.179 322.900 C 227.786 322.295,226.513 320.373,225.350 318.629 L 223.235 315.459 224.788 314.316 C 229.365 310.950,229.443 302.966,224.934 299.250 C 222.209 297.003,220.666 296.692,211.300 296.497 L 202.800 296.320 202.800 310.160 M306.000 310.200 L 306.000 324.000 313.500 323.993 C 329.205 323.979,334.572 320.465,334.572 310.200 C 334.572 299.935,329.205 296.421,313.500 296.407 L 306.000 296.400 306.000 310.200 M338.400 310.200 L 338.400 324.000 349.800 324.000 L 361.200 324.000 361.200 320.600 L 361.200 317.200 354.200 317.200 L 347.200 317.200 347.200 315.200 L 347.200 313.200 353.000 313.200 L 358.800 313.200 358.800 309.800 L 358.800 306.400 353.000 306.400 L 347.200 306.400 347.200 304.800 L 347.200 303.200 353.800 303.200 L 360.400 303.200 360.400 299.800 L 360.400 296.400 349.400 296.400 L 338.400 296.400 338.400 310.200 M186.806 303.942 C 190.679 306.002,191.173 312.732,187.668 315.681 C 184.744 318.142,180.292 317.134,178.474 313.600 C 175.367 307.560,181.106 300.908,186.806 303.942 M218.031 304.369 C 220.727 307.065,218.948 310.000,214.618 310.000 L 212.000 310.000 212.000 306.600 L 212.000 303.200 214.431 303.200 C 216.584 303.200,216.995 303.333,218.031 304.369 M290.006 303.942 C 291.988 304.996,293.187 307.279,293.187 310.000 C 293.187 315.322,288.020 318.639,283.996 315.900 C 277.103 311.209,282.708 300.058,290.006 303.942 M322.393 304.341 C 324.418 305.426,325.305 306.848,325.512 309.339 C 325.923 314.301,323.834 316.517,318.532 316.741 L 315.200 316.882 315.200 310.241 L 315.200 303.600 318.106 303.600 C 320.171 303.600,321.412 303.814,322.393 304.341 M109.165 308.910 C 109.844 310.621,110.400 312.106,110.400 312.210 C 110.400 312.315,109.230 312.400,107.800 312.400 C 106.370 312.400,105.199 312.265,105.198 312.100 C 105.195 311.651,107.684 305.551,107.816 305.685 C 107.879 305.748,108.486 307.200,109.165 308.910 M45.000 343.337 C 42.416 344.008,40.914 344.822,39.276 346.436 C 36.879 348.800,36.895 348.856,40.527 350.782 L 43.800 352.517 45.142 351.258 C 47.423 349.120,50.800 349.730,50.800 352.281 C 50.800 353.909,49.520 355.477,44.012 360.600 L 38.850 365.400 38.825 368.300 L 38.800 371.200 49.800 371.200 L 60.800 371.200 60.800 367.600 L 60.800 364.000 56.136 364.000 L 51.471 364.000 54.886 360.700 C 59.587 356.158,60.895 352.923,59.608 349.023 C 58.078 344.388,51.223 341.719,45.000 343.337 M85.666 343.414 C 72.550 346.261,70.251 363.971,82.236 369.835 C 86.955 372.144,93.395 371.973,99.159 369.386 L 101.600 368.291 101.600 362.345 L 101.600 356.400 97.600 356.400 L 93.600 356.400 93.600 359.953 C 93.600 363.977,93.594 363.984,89.959 363.995 C 83.449 364.014,81.260 355.090,86.837 351.265 C 88.883 349.862,92.488 350.153,94.949 351.921 L 96.739 353.206 99.566 350.718 L 102.393 348.231 101.104 346.901 C 97.844 343.538,91.596 342.126,85.666 343.414 M106.000 357.400 L 106.000 371.200 117.400 371.200 L 128.800 371.200 128.800 367.800 L 128.800 364.400 121.800 364.400 L 114.800 364.400 114.800 362.400 L 114.800 360.400 120.600 360.400 L 126.400 360.400 126.400 357.000 L 126.400 353.600 120.600 353.600 L 114.800 353.600 114.800 352.000 L 114.800 350.400 121.400 350.400 L 128.000 350.400 128.000 347.000 L 128.000 343.600 117.000 343.600 L 106.000 343.600 106.000 357.400 M130.400 347.200 L 130.400 350.800 134.400 350.800 L 138.400 350.800 138.400 361.000 L 138.400 371.200 143.000 371.200 L 147.600 371.200 147.600 361.000 L 147.600 350.800 151.600 350.800 L 155.600 350.800 155.600 347.200 L 155.600 343.600 143.000 343.600 L 130.400 343.600 130.400 347.200 M167.600 347.200 L 167.600 350.800 171.600 350.800 L 175.600 350.800 175.600 361.000 L 175.600 371.200 180.200 371.200 L 184.800 371.200 184.800 361.000 L 184.800 350.800 188.800 350.800 L 192.800 350.800 192.800 347.200 L 192.800 343.600 180.200 343.600 L 167.600 343.600 167.600 347.200 M195.600 357.400 L 195.600 371.200 200.200 371.200 L 204.800 371.200 204.800 366.000 L 204.800 360.800 209.000 360.800 L 213.200 360.800 213.200 366.000 L 213.200 371.200 217.800 371.200 L 222.400 371.200 222.400 357.400 L 222.400 343.600 217.800 343.600 L 213.200 343.600 213.200 348.400 L 213.200 353.200 209.000 353.200 L 204.800 353.200 204.800 348.400 L 204.800 343.600 200.200 343.600 L 195.600 343.600 195.600 357.400 M227.200 357.400 L 227.200 371.200 238.600 371.200 L 250.000 371.200 250.000 367.800 L 250.000 364.400 243.000 364.400 L 236.000 364.400 236.000 362.400 L 236.000 360.400 241.800 360.400 L 247.600 360.400 247.600 357.000 L 247.600 353.600 241.800 353.600 L 236.000 353.600 236.000 352.000 L 236.000 350.400 242.600 350.400 L 249.200 350.400 249.200 347.000 L 249.200 343.600 238.200 343.600 L 227.200 343.600 227.200 357.400 M265.200 357.400 L 265.200 371.200 273.500 371.198 C 282.583 371.195,285.586 370.866,288.243 369.579 C 292.996 367.279,293.361 360.806,288.897 357.976 L 287.137 356.860 288.149 356.197 C 290.736 354.501,291.497 349.864,289.620 347.227 C 287.588 344.374,284.069 343.600,273.127 343.600 L 265.200 343.600 265.200 357.400 M295.600 357.400 L 295.600 371.200 300.200 371.200 L 304.800 371.200 304.800 357.400 L 304.800 343.600 300.200 343.600 L 295.600 343.600 295.600 357.400 M309.600 357.400 L 309.600 371.200 314.000 371.200 L 318.400 371.200 318.411 367.900 C 318.421 364.899,318.521 364.480,319.518 363.279 L 320.613 361.958 324.124 366.579 L 327.635 371.200 332.865 371.200 L 338.095 371.200 337.126 369.900 C 336.593 369.185,334.130 365.928,331.652 362.662 C 329.173 359.396,327.063 356.508,326.962 356.245 C 326.861 355.982,329.220 353.029,332.204 349.683 L 337.630 343.600 332.648 343.600 L 327.666 343.600 323.372 348.500 C 321.010 351.195,318.926 353.460,318.739 353.533 C 318.553 353.607,318.400 351.402,318.400 348.633 L 318.400 343.600 314.000 343.600 L 309.600 343.600 309.600 357.400 M339.600 357.400 L 339.600 371.200 351.000 371.200 L 362.400 371.200 362.400 367.800 L 362.400 364.400 355.400 364.400 L 348.400 364.400 348.400 362.400 L 348.400 360.400 354.200 360.400 L 360.000 360.400 360.000 357.000 L 360.000 353.600 354.200 353.600 L 348.400 353.600 348.400 352.000 L 348.400 350.400 355.000 350.400 L 361.600 350.400 361.600 347.000 L 361.600 343.600 350.600 343.600 L 339.600 343.600 339.600 357.400 M280.869 350.662 C 283.022 352.611,281.236 354.400,277.138 354.400 L 274.000 354.400 274.000 352.200 L 274.000 350.000 277.069 350.000 C 279.362 350.000,280.322 350.167,280.869 350.662 M282.069 361.062 C 284.367 363.142,282.446 364.800,277.738 364.800 L 274.000 364.800 274.000 362.600 L 274.000 360.400 277.669 360.400 C 280.521 360.400,281.500 360.547,282.069 361.062 " stroke="none" fill="#fc44db" fill-rule="evenodd"></path><path id="path1" d="M17.250 0.631 C 9.503 2.715,2.637 9.642,0.611 17.421 C -0.320 20.998,-0.320 379.002,0.611 382.579 C 2.661 390.448,9.552 397.339,17.421 399.389 C 20.998 400.320,379.002 400.320,382.579 399.389 C 390.448 397.339,397.339 390.448,399.389 382.579 C 400.320 379.002,400.320 20.998,399.389 17.421 C 397.339 9.552,390.448 2.661,382.579 0.611 C 379.115 -0.291,20.606 -0.272,17.250 0.631 M212.333 37.437 C 281.574 45.573,326.419 116.169,304.418 182.400 C 290.804 223.386,258.636 249.913,212.800 257.954 C 203.138 259.649,180.937 258.362,172.800 255.636 C 171.590 255.230,169.610 254.673,168.400 254.397 C 164.902 253.600,162.380 252.777,159.800 251.592 C 158.480 250.985,156.588 250.216,155.595 249.882 C 153.085 249.037,149.071 247.235,148.814 246.838 C 148.696 246.656,147.790 246.097,146.800 245.595 C 145.810 245.094,143.591 243.809,141.868 242.742 C 140.146 241.674,138.601 240.800,138.435 240.800 C 138.094 240.800,133.509 237.653,133.200 237.207 C 133.090 237.048,132.010 236.118,130.800 235.140 C 129.590 234.161,127.250 232.268,125.600 230.931 C 123.950 229.594,120.530 226.204,118.000 223.396 C 115.470 220.588,112.794 217.640,112.054 216.845 C 110.654 215.342,108.400 212.237,108.400 211.811 C 108.400 211.676,107.635 210.540,106.700 209.286 C 104.787 206.721,103.577 204.565,99.698 196.800 C 98.214 193.830,96.890 191.310,96.756 191.200 C 95.779 190.398,92.275 179.574,90.993 173.400 C 90.628 171.640,89.975 168.692,89.541 166.850 C 89.047 164.746,88.564 160.355,88.245 155.050 C 84.048 85.349,143.171 29.311,212.333 37.437 M58.600 296.554 C 61.645 297.533,61.870 297.748,61.337 299.163 C 60.998 300.059,61.000 300.400,61.342 300.516 C 61.690 300.633,59.732 306.517,59.022 307.488 C 58.987 307.536,57.888 307.135,56.579 306.597 C 54.988 305.943,53.471 305.628,52.000 305.647 L 49.800 305.675 53.694 306.624 C 61.483 308.523,63.413 310.848,62.823 317.626 C 62.432 322.105,60.864 324.321,56.805 326.124 C 51.384 328.532,37.104 326.405,38.476 323.393 C 38.852 322.569,38.848 322.277,38.458 322.036 C 38.085 321.805,38.328 320.888,39.430 318.364 C 41.158 314.408,41.044 314.573,41.690 315.107 C 42.734 315.968,47.245 317.199,49.287 317.180 L 51.400 317.161 47.658 316.194 C 39.600 314.112,36.793 309.767,38.824 302.515 C 40.444 296.728,50.094 293.819,58.600 296.554 M86.650 296.953 C 90.063 298.501,92.397 300.899,91.479 301.912 C 90.862 302.595,90.862 302.691,91.484 303.313 C 91.852 303.680,92.073 304.031,91.976 304.093 C 91.879 304.154,90.594 305.335,89.121 306.716 L 86.442 309.227 84.636 307.848 C 80.938 305.025,76.442 305.637,74.592 309.215 C 71.707 314.795,79.888 319.235,84.918 314.819 L 86.213 313.681 87.407 314.695 C 91.784 318.414,92.107 318.819,91.356 319.648 C 90.685 320.390,90.686 320.456,91.375 321.112 C 91.773 321.493,92.169 321.621,92.258 321.400 C 92.348 321.180,94.818 315.510,97.749 308.800 L 103.078 296.600 107.839 296.501 L 112.600 296.402 118.400 309.811 C 125.217 325.572,124.613 324.000,123.854 324.000 C 123.307 324.000,123.305 324.154,123.831 325.412 L 124.421 326.825 119.554 326.712 L 114.687 326.600 113.890 324.500 L 113.093 322.400 107.793 322.400 L 102.493 322.400 101.600 324.600 L 100.707 326.800 95.974 326.800 L 91.241 326.800 91.826 325.400 C 92.344 324.159,92.342 324.000,91.805 324.000 C 91.078 324.000,91.058 323.814,91.665 322.674 C 91.979 322.082,91.574 322.300,90.413 323.346 C 82.178 330.762,67.641 327.051,64.795 316.805 C 64.061 314.163,64.309 307.073,65.222 304.634 C 68.065 297.035,78.549 293.276,86.650 296.953 M190.481 296.759 C 199.891 300.407,202.798 314.601,195.736 322.418 C 194.309 323.998,194.355 324.523,195.824 323.413 C 196.925 322.579,196.906 322.569,199.008 325.030 C 200.763 327.085,200.862 327.310,200.264 327.907 C 199.667 328.504,199.668 328.612,200.274 329.282 C 201.930 331.112,196.807 333.759,192.034 333.538 C 188.298 333.366,185.659 332.167,182.200 329.071 C 180.880 327.889,179.080 326.690,178.200 326.406 C 164.672 322.033,164.787 300.815,178.364 296.336 C 181.454 295.317,187.286 295.520,190.481 296.759 M265.050 296.953 C 268.463 298.501,270.797 300.899,269.879 301.912 C 269.262 302.595,269.262 302.691,269.884 303.313 C 270.252 303.680,270.473 304.031,270.376 304.093 C 270.279 304.154,268.994 305.335,267.521 306.716 L 264.842 309.227 263.036 307.848 C 259.338 305.025,254.842 305.637,252.992 309.215 C 250.107 314.795,258.288 319.235,263.318 314.819 L 264.613 313.681 265.807 314.695 C 270.164 318.398,270.504 318.822,269.768 319.636 C 269.119 320.352,269.118 320.446,269.749 321.144 C 270.388 321.850,270.338 321.963,268.759 323.390 C 260.594 330.766,246.031 327.015,243.195 316.805 C 242.461 314.163,242.709 307.073,243.622 304.634 C 246.465 297.035,256.949 293.276,265.050 296.953 M294.082 296.895 C 306.901 302.763,305.396 322.717,291.839 326.614 C 278.901 330.332,268.182 318.839,272.166 305.519 C 274.593 297.406,285.674 293.045,294.082 296.895 M138.887 302.411 L 143.800 308.421 143.910 302.411 L 144.021 296.400 148.810 296.400 L 153.600 296.400 153.597 309.500 C 153.595 316.705,153.480 323.545,153.341 324.700 L 153.089 326.800 149.386 326.800 L 145.684 326.800 140.742 320.928 L 135.800 315.056 135.546 320.228 C 135.406 323.073,135.271 325.715,135.246 326.100 C 135.205 326.721,134.709 326.800,130.856 326.800 L 126.511 326.800 126.259 324.700 C 126.120 323.545,126.005 316.705,126.003 309.500 L 126.000 296.400 129.987 296.400 L 133.974 296.400 138.887 302.411 M222.525 297.563 C 228.851 300.680,230.769 310.553,226.107 316.000 L 224.743 317.594 226.950 320.797 C 229.087 323.899,229.124 324.000,228.151 324.000 L 227.146 324.000 227.973 325.162 C 228.428 325.801,228.800 326.431,228.800 326.562 C 228.800 326.693,226.595 326.797,223.900 326.794 L 219.000 326.789 216.800 323.400 C 214.787 320.300,214.489 320.011,213.300 320.006 L 212.000 320.000 212.000 323.400 L 212.000 326.800 207.456 326.800 L 202.911 326.800 202.659 324.700 C 202.520 323.545,202.405 316.690,202.403 309.467 L 202.400 296.335 211.500 296.475 C 220.118 296.607,220.702 296.665,222.525 297.563 M326.597 297.574 C 336.751 301.624,338.346 317.873,329.200 324.086 C 325.818 326.383,323.511 326.800,314.172 326.800 L 306.111 326.800 305.859 324.700 C 305.720 323.545,305.605 316.693,305.603 309.473 L 305.600 296.347 314.900 296.482 C 323.598 296.609,324.355 296.680,326.597 297.574 M360.800 301.237 C 360.800 305.738,360.744 306.089,360.000 306.284 C 359.257 306.478,359.200 306.830,359.200 311.247 L 359.200 316.000 353.400 316.000 C 349.800 316.000,347.600 316.152,347.600 316.400 C 347.600 316.651,350.133 316.800,354.400 316.800 L 361.200 316.800 361.200 321.800 L 361.200 326.800 349.856 326.800 L 338.511 326.800 338.259 324.700 C 338.120 323.545,338.005 316.705,338.003 309.500 L 338.000 296.400 349.400 296.400 L 360.800 296.400 360.800 301.237 M181.208 306.678 C 177.214 308.749,177.050 313.657,180.896 316.002 C 184.557 318.234,189.680 315.513,189.680 311.337 C 189.680 307.579,184.725 304.854,181.208 306.678 M284.408 306.701 C 280.052 308.889,280.310 314.258,284.861 316.144 C 288.161 317.512,291.410 316.026,292.574 312.615 C 294.026 308.362,288.732 304.528,284.408 306.701 M212.000 308.247 L 212.000 310.093 214.608 309.927 C 220.089 309.578,220.206 306.400,214.738 306.400 L 212.000 306.400 212.000 308.247 M315.200 311.549 L 315.200 316.800 317.500 316.798 C 327.483 316.788,328.255 307.053,318.318 306.478 L 315.200 306.297 315.200 311.549 M107.285 309.600 C 106.228 312.393,106.229 312.400,107.800 312.400 C 109.379 312.400,109.432 312.013,108.182 309.600 L 107.664 308.600 107.285 309.600 M55.610 344.253 C 61.561 347.600,61.988 356.417,56.474 362.100 L 54.630 364.000 57.715 364.000 L 60.800 364.000 60.800 369.000 L 60.800 374.000 49.856 374.000 L 38.911 374.000 38.659 371.900 C 38.520 370.745,38.405 368.876,38.403 367.746 L 38.400 365.692 44.021 360.380 C 50.406 354.347,50.796 353.840,49.563 353.180 C 48.354 352.533,46.267 353.042,45.022 354.287 L 43.954 355.355 40.577 353.681 C 36.984 351.899,36.910 351.817,37.803 350.637 C 38.313 349.963,38.300 349.815,37.690 349.368 C 36.852 348.754,37.662 347.447,40.108 345.468 C 43.844 342.444,51.348 341.856,55.610 344.253 M95.504 343.539 C 99.639 344.826,103.024 347.548,101.894 348.677 C 101.333 349.238,101.326 349.420,101.833 350.195 C 102.381 351.031,102.273 351.196,99.639 353.537 C 96.447 356.374,96.672 356.300,95.140 355.011 C 91.812 352.210,86.393 352.932,84.592 356.415 C 82.564 360.337,86.658 364.702,91.488 363.769 L 93.400 363.400 93.516 359.900 L 93.631 356.400 97.816 356.400 L 102.000 356.400 101.997 361.700 C 101.991 370.532,101.875 371.009,99.445 372.186 C 89.082 377.204,77.383 373.322,74.795 364.005 C 71.015 350.401,82.161 339.386,95.504 343.539 M128.400 348.437 C 128.400 352.938,128.344 353.289,127.600 353.484 C 126.857 353.678,126.800 354.030,126.800 358.447 L 126.800 363.200 121.000 363.200 C 117.400 363.200,115.200 363.352,115.200 363.600 C 115.200 363.851,117.733 364.000,122.000 364.000 L 128.800 364.000 128.800 369.000 L 128.800 374.000 117.456 374.000 L 106.111 374.000 105.859 371.900 C 105.720 370.745,105.605 363.905,105.603 356.700 L 105.600 343.600 117.000 343.600 L 128.400 343.600 128.400 348.437 M155.600 348.600 L 155.600 353.600 151.600 353.600 L 147.600 353.600 147.600 363.800 L 147.600 374.000 142.800 374.000 L 138.000 374.000 138.000 363.800 L 138.000 353.600 134.000 353.600 L 130.000 353.600 130.000 348.600 L 130.000 343.600 142.800 343.600 L 155.600 343.600 155.600 348.600 M192.800 348.600 L 192.800 353.600 188.800 353.600 L 184.800 353.600 184.800 363.800 L 184.800 374.000 180.000 374.000 L 175.200 374.000 175.200 363.800 L 175.200 353.600 171.200 353.600 L 167.200 353.600 167.200 348.600 L 167.200 343.600 180.000 343.600 L 192.800 343.600 192.800 348.600 M204.800 348.400 L 204.800 353.200 209.000 353.200 L 213.200 353.200 213.200 348.400 L 213.200 343.600 218.000 343.600 L 222.800 343.600 222.797 356.700 C 222.795 363.905,222.680 370.745,222.541 371.900 L 222.289 374.000 217.744 374.000 L 213.200 374.000 213.200 368.800 L 213.200 363.600 209.000 363.600 L 204.800 363.600 204.800 368.800 L 204.800 374.000 200.256 374.000 L 195.711 374.000 195.459 371.900 C 195.320 370.745,195.205 363.905,195.203 356.700 L 195.200 343.600 200.000 343.600 L 204.800 343.600 204.800 348.400 M249.600 348.437 C 249.600 352.938,249.544 353.289,248.800 353.484 C 248.057 353.678,248.000 354.030,248.000 358.447 L 248.000 363.200 242.200 363.200 C 238.600 363.200,236.400 363.352,236.400 363.600 C 236.400 363.851,238.933 364.000,243.200 364.000 L 250.000 364.000 250.000 369.000 L 250.000 374.000 238.656 374.000 L 227.311 374.000 227.059 371.900 C 226.920 370.745,226.805 363.905,226.803 356.700 L 226.800 343.600 238.200 343.600 L 249.600 343.600 249.600 348.437 M285.174 344.229 C 286.492 344.621,287.920 345.442,288.947 346.400 L 290.600 347.942 290.737 351.495 C 290.838 354.110,290.704 355.456,290.230 356.591 C 289.618 358.056,289.625 358.175,290.374 358.972 C 293.199 361.980,292.821 369.152,289.708 371.601 C 287.106 373.648,286.439 373.757,275.559 373.912 L 265.318 374.059 265.063 371.929 C 264.922 370.758,264.805 363.905,264.803 356.700 L 264.800 343.600 273.927 343.600 C 281.066 343.600,283.517 343.737,285.174 344.229 M304.800 358.800 L 304.800 374.000 300.256 374.000 L 295.711 374.000 295.459 371.900 C 295.320 370.745,295.205 363.905,295.203 356.700 L 295.200 343.600 300.000 343.600 L 304.800 343.600 304.800 358.800 M318.888 348.439 L 319.000 353.278 323.200 348.451 L 327.400 343.623 332.520 343.612 L 337.641 343.600 336.595 344.971 L 335.549 346.342 336.546 346.471 C 337.478 346.592,337.320 346.850,334.150 350.400 C 332.283 352.490,330.125 354.951,329.355 355.869 L 327.954 357.538 333.147 364.345 C 338.023 370.738,338.278 371.160,337.329 371.276 L 336.319 371.400 337.160 372.463 C 338.391 374.021,338.448 374.001,332.700 373.991 L 327.400 373.982 324.059 369.560 L 320.717 365.138 319.759 366.039 C 319.096 366.662,318.799 367.381,318.797 368.370 C 318.795 369.156,318.680 370.745,318.541 371.900 L 318.289 374.000 314.000 374.000 L 309.711 374.000 309.459 371.900 C 309.320 370.745,309.205 363.905,309.203 356.700 L 309.200 343.600 313.988 343.600 L 318.775 343.600 318.888 348.439 M362.000 348.437 C 362.000 352.938,361.944 353.289,361.200 353.484 C 360.457 353.678,360.400 354.030,360.400 358.447 L 360.400 363.200 354.600 363.200 C 351.000 363.200,348.800 363.352,348.800 363.600 C 348.800 363.851,351.333 364.000,355.600 364.000 L 362.400 364.000 362.400 369.000 L 362.400 374.000 351.056 374.000 L 339.711 374.000 339.459 371.900 C 339.320 370.745,339.205 363.905,339.203 356.700 L 339.200 343.600 350.600 343.600 L 362.000 343.600 362.000 348.437 M274.400 353.600 C 274.400 354.450,274.524 354.481,277.373 354.337 C 280.286 354.190,281.227 353.893,280.640 353.306 C 279.780 352.447,274.400 352.700,274.400 353.600 M274.400 364.040 C 274.400 364.841,274.566 364.873,277.967 364.740 C 283.682 364.516,283.456 363.217,277.700 363.206 C 274.613 363.200,274.400 363.254,274.400 364.040 " stroke="none" fill="#fcfbfb" fill-rule="evenodd"></path><path id="path2" d="M60.001 302.598 C 59.287 304.356,58.950 304.782,58.445 304.561 C 53.219 302.270,48.000 302.111,48.000 304.243 C 48.000 305.292,48.147 305.342,50.839 305.219 C 51.986 305.167,53.842 305.537,55.771 306.203 C 57.472 306.790,58.935 307.198,59.023 307.110 C 59.618 306.515,61.550 300.990,61.263 300.703 C 61.062 300.502,60.524 301.309,60.001 302.598 M88.400 304.600 C 86.759 306.272,85.600 306.874,85.600 306.054 C 85.600 305.378,82.573 303.632,80.954 303.376 C 77.646 302.852,74.005 305.551,74.001 308.531 L 74.000 309.661 75.048 308.416 C 77.727 305.232,81.926 305.167,85.236 308.260 L 86.273 309.228 89.146 306.567 C 91.444 304.440,91.928 303.795,91.561 303.353 C 90.828 302.469,90.278 302.686,88.400 304.600 M266.800 304.600 C 265.159 306.272,264.000 306.874,264.000 306.054 C 264.000 305.378,260.973 303.632,259.354 303.376 C 256.046 302.852,252.405 305.551,252.401 308.531 L 252.400 309.661 253.448 308.416 C 256.127 305.232,260.326 305.167,263.636 308.260 L 264.673 309.228 267.546 306.567 C 269.844 304.440,270.328 303.795,269.961 303.353 C 269.228 302.469,268.678 302.686,266.800 304.600 M181.383 303.933 C 179.436 304.840,178.375 306.342,178.118 308.555 L 177.927 310.200 178.760 308.896 C 181.360 304.826,187.015 305.099,189.190 309.400 L 189.999 311.000 190.000 309.785 C 190.001 305.282,185.317 302.101,181.383 303.933 M284.508 303.967 C 282.520 304.891,281.203 306.817,281.203 308.800 L 281.203 310.200 281.998 308.896 C 284.372 305.002,290.023 305.082,292.293 309.042 C 293.563 311.256,293.568 309.291,292.300 306.808 C 290.655 303.590,287.665 302.499,284.508 303.967 M212.000 304.753 C 212.000 305.888,212.041 305.909,214.577 306.071 C 216.354 306.184,217.410 306.466,217.977 306.980 C 219.156 308.046,219.177 305.577,218.000 304.400 C 216.565 302.965,212.000 303.233,212.000 304.753 M315.200 304.949 L 315.200 306.400 318.016 306.400 C 321.526 306.400,323.633 307.364,324.803 309.504 L 325.621 311.000 325.381 309.200 C 324.890 305.529,322.887 303.942,318.417 303.683 L 315.200 303.497 315.200 304.949 M347.600 304.800 L 347.600 306.000 354.000 306.000 L 360.400 306.000 360.400 304.800 L 360.400 303.600 354.000 303.600 L 347.600 303.600 347.600 304.800 M106.875 308.072 C 106.433 309.243,105.880 310.695,105.645 311.300 C 105.299 312.195,105.330 312.400,105.810 312.400 C 106.134 312.400,106.413 312.175,106.430 311.900 C 106.446 311.625,106.777 310.680,107.165 309.801 L 107.870 308.202 108.567 310.301 C 108.951 311.455,109.501 312.400,109.789 312.400 C 110.220 312.400,108.447 306.768,107.797 306.072 C 107.732 306.002,107.317 306.902,106.875 308.072 M38.427 307.400 C 38.360 310.810,40.851 313.961,44.573 315.175 C 50.762 317.194,53.600 317.444,53.600 315.971 C 53.600 315.014,52.847 314.641,49.300 313.843 C 43.030 312.432,40.630 311.155,39.216 308.479 C 38.787 307.665,38.432 307.180,38.427 307.400 M227.680 310.925 C 227.394 311.718,226.347 313.083,225.352 313.958 C 223.610 315.492,223.325 317.200,224.812 317.200 C 225.456 317.200,227.577 313.972,228.025 312.308 C 228.598 310.181,228.332 309.117,227.680 310.925 M135.600 313.510 C 135.600 314.579,136.467 315.823,140.679 320.799 L 145.757 326.800 149.479 326.800 L 153.200 326.800 153.200 325.400 L 153.200 324.000 149.423 324.000 L 145.646 324.000 141.356 318.900 C 135.194 311.575,135.600 311.956,135.600 313.510 M168.428 314.027 C 168.304 318.610,172.484 324.126,177.505 326.005 C 178.733 326.464,180.742 327.698,181.969 328.746 C 186.145 332.312,189.023 333.600,192.811 333.600 C 196.619 333.600,201.418 330.978,200.320 329.498 C 199.828 328.835,199.702 328.846,198.000 329.698 C 193.290 332.058,186.958 330.697,182.134 326.288 C 180.720 324.995,179.144 323.964,178.136 323.672 C 174.389 322.586,170.175 318.484,169.020 314.800 C 168.594 313.440,168.449 313.251,168.428 314.027 M271.796 315.000 C 273.455 330.624,299.949 331.078,302.237 315.522 L 302.490 313.800 301.234 316.259 C 295.269 327.940,276.223 326.881,272.132 314.641 L 271.584 313.000 271.796 315.000 M347.600 314.600 L 347.600 316.000 353.200 316.000 L 358.800 316.000 358.800 314.600 L 358.800 313.200 353.200 313.200 L 347.600 313.200 347.600 314.600 M64.605 315.200 C 65.782 324.300,76.434 329.619,86.179 325.973 C 88.968 324.930,92.217 322.143,91.563 321.355 C 90.917 320.577,90.608 320.644,88.799 321.955 C 81.365 327.340,68.555 323.824,65.206 315.479 L 64.372 313.400 64.605 315.200 M243.005 315.200 C 244.182 324.300,254.834 329.619,264.579 325.973 C 267.368 324.930,270.617 322.143,269.963 321.355 C 269.317 320.577,269.008 320.644,267.199 321.955 C 259.765 327.340,246.955 323.824,243.606 315.479 L 242.772 313.400 243.005 315.200 M198.454 315.578 C 197.867 317.538,194.427 321.366,192.260 322.471 C 190.742 323.246,190.689 323.330,191.398 323.848 C 193.827 325.624,198.189 320.959,199.033 315.683 C 199.372 313.564,199.074 313.510,198.454 315.578 M334.057 315.569 C 333.299 318.098,329.717 321.582,326.597 322.826 C 324.363 323.716,323.583 323.790,315.100 323.918 L 306.000 324.054 306.000 325.427 L 306.000 326.800 313.300 326.798 C 324.687 326.794,328.763 325.647,332.016 321.532 C 333.568 319.568,334.989 315.875,334.723 314.498 C 334.645 314.098,334.361 314.555,334.057 315.569 M212.000 318.400 C 212.000 319.464,212.134 319.600,213.190 319.600 C 214.242 319.600,214.659 320.016,216.800 323.200 L 219.221 326.800 224.050 326.800 L 228.879 326.800 228.056 325.500 L 227.234 324.200 223.084 324.087 L 218.934 323.974 216.768 320.587 C 214.293 316.715,212.000 315.664,212.000 318.400 M62.454 318.109 C 62.030 323.635,48.693 326.257,39.549 322.612 C 38.700 322.273,38.081 324.347,38.877 324.864 C 47.166 330.241,64.081 325.583,62.683 318.307 C 62.566 317.694,62.491 317.630,62.454 318.109 M101.710 321.700 L 100.913 323.800 96.724 323.913 L 92.536 324.026 91.874 325.413 L 91.213 326.800 95.958 326.800 L 100.702 326.800 101.600 324.400 L 102.498 322.000 107.679 322.000 L 112.860 322.000 113.895 324.400 L 114.931 326.800 119.646 326.800 L 124.361 326.800 123.816 325.500 L 123.271 324.200 118.948 324.000 L 114.626 323.800 113.816 321.700 L 113.006 319.600 107.756 319.600 L 102.507 319.600 101.710 321.700 M126.400 325.400 L 126.400 326.800 130.800 326.800 L 135.200 326.800 135.200 325.400 L 135.200 324.000 130.800 324.000 L 126.400 324.000 126.400 325.400 M202.800 325.400 L 202.800 326.800 207.400 326.800 L 212.000 326.800 212.000 325.400 L 212.000 324.000 207.400 324.000 L 202.800 324.000 202.800 325.400 M338.400 325.400 L 338.400 326.800 349.800 326.800 L 361.200 326.800 361.200 325.400 L 361.200 324.000 349.800 324.000 L 338.400 324.000 338.400 325.400 M331.017 351.236 C 327.167 355.550,326.766 356.137,327.305 356.676 C 327.975 357.346,327.601 357.695,334.375 350.100 C 337.590 346.495,337.645 346.400,336.504 346.400 C 335.513 346.400,334.673 347.140,331.017 351.236 M98.810 351.556 L 96.638 353.471 94.955 352.187 C 90.627 348.883,84.008 351.014,84.001 355.714 L 84.000 356.828 85.220 355.438 C 87.574 352.757,91.924 352.441,94.788 354.742 C 96.773 356.338,96.521 356.403,99.721 353.463 C 102.318 351.077,102.409 350.932,101.712 350.302 C 101.024 349.679,100.856 349.751,98.810 351.556 M38.111 350.500 C 37.070 351.846,37.191 352.001,40.607 353.693 C 43.758 355.254,44.087 355.340,44.447 354.700 C 45.306 353.169,48.852 352.212,49.875 353.235 C 50.494 353.854,50.938 353.005,50.633 351.789 C 50.083 349.598,46.815 349.516,45.021 351.648 L 43.993 352.870 41.383 351.435 C 38.383 349.786,38.613 349.851,38.111 350.500 M274.400 351.400 L 274.400 352.800 277.026 352.800 C 278.471 352.800,280.001 352.986,280.426 353.214 C 281.124 353.587,281.200 353.488,281.200 352.204 C 281.200 350.460,280.277 350.000,276.774 350.000 L 274.400 350.000 274.400 351.400 M115.200 352.000 L 115.200 353.200 121.600 353.200 L 128.000 353.200 128.000 352.000 L 128.000 350.800 121.600 350.800 L 115.200 350.800 115.200 352.000 M130.000 352.200 L 130.000 353.600 134.000 353.600 L 138.000 353.600 138.000 352.200 L 138.000 350.800 134.000 350.800 L 130.000 350.800 130.000 352.200 M147.600 352.200 L 147.600 353.600 151.600 353.600 L 155.600 353.600 155.600 352.200 L 155.600 350.800 151.600 350.800 L 147.600 350.800 147.600 352.200 M167.200 352.200 L 167.200 353.600 171.200 353.600 L 175.200 353.600 175.200 352.200 L 175.200 350.800 171.200 350.800 L 167.200 350.800 167.200 352.200 M184.800 352.200 L 184.800 353.600 188.800 353.600 L 192.800 353.600 192.800 352.200 L 192.800 350.800 188.800 350.800 L 184.800 350.800 184.800 352.200 M236.400 352.000 L 236.400 353.200 242.800 353.200 L 249.200 353.200 249.200 352.000 L 249.200 350.800 242.800 350.800 L 236.400 350.800 236.400 352.000 M348.800 352.000 L 348.800 353.200 355.200 353.200 L 361.600 353.200 361.600 352.000 L 361.600 350.800 355.200 350.800 L 348.800 350.800 348.800 352.000 M290.460 353.499 C 290.427 353.773,289.774 354.691,289.008 355.538 L 287.616 357.079 288.574 357.515 C 289.722 358.039,290.977 356.001,290.685 354.086 C 290.594 353.489,290.493 353.224,290.460 353.499 M59.479 355.335 C 59.307 355.959,57.528 358.164,55.525 360.235 L 51.882 364.000 53.286 364.000 C 55.826 364.000,60.266 358.168,59.920 355.285 L 59.790 354.200 59.479 355.335 M115.200 361.800 L 115.200 363.200 120.800 363.200 L 126.400 363.200 126.400 361.800 L 126.400 360.400 120.800 360.400 L 115.200 360.400 115.200 361.800 M236.400 361.800 L 236.400 363.200 242.000 363.200 L 247.600 363.200 247.600 361.800 L 247.600 360.400 242.000 360.400 L 236.400 360.400 236.400 361.800 M274.400 361.800 L 274.400 363.200 277.976 363.200 C 280.201 363.200,281.658 363.371,281.832 363.651 C 282.261 364.346,282.897 362.936,282.590 361.969 C 282.227 360.825,280.816 360.400,277.374 360.400 L 274.400 360.400 274.400 361.800 M348.800 361.800 L 348.800 363.200 354.400 363.200 L 360.000 363.200 360.000 361.800 L 360.000 360.400 354.400 360.400 L 348.800 360.400 348.800 361.800 M74.605 362.400 C 75.677 370.690,84.137 375.755,93.754 373.866 C 98.868 372.861,101.600 371.414,101.600 369.710 L 101.600 368.387 99.604 369.398 C 90.118 374.205,78.553 371.020,75.206 362.679 L 74.372 360.600 74.605 362.400 M204.800 362.200 L 204.800 363.600 209.000 363.600 L 213.200 363.600 213.200 362.200 L 213.200 360.800 209.000 360.800 L 204.800 360.800 204.800 362.200 M319.696 363.298 C 319.135 363.895,318.800 364.754,318.800 365.596 L 318.800 366.939 319.798 366.001 C 320.348 365.486,320.858 365.139,320.933 365.232 C 321.008 365.324,322.464 367.257,324.169 369.526 C 327.850 374.426,327.087 374.053,333.127 373.913 L 338.010 373.800 337.105 372.507 L 336.200 371.214 331.782 371.207 L 327.365 371.200 324.899 367.900 C 323.543 366.085,322.019 364.093,321.513 363.472 L 320.591 362.345 319.696 363.298 M290.604 367.952 C 288.177 370.748,287.052 370.984,275.500 371.130 L 265.200 371.260 265.200 372.666 L 265.200 374.072 275.100 373.896 C 287.080 373.684,289.326 373.104,291.306 369.714 C 292.597 367.503,292.092 366.238,290.604 367.952 M38.800 372.600 L 38.800 374.000 49.800 374.000 L 60.800 374.000 60.800 372.600 L 60.800 371.200 49.800 371.200 L 38.800 371.200 38.800 372.600 M106.000 372.600 L 106.000 374.000 117.400 374.000 L 128.800 374.000 128.800 372.600 L 128.800 371.200 117.400 371.200 L 106.000 371.200 106.000 372.600 M138.400 372.600 L 138.400 374.000 143.000 374.000 L 147.600 374.000 147.600 372.600 L 147.600 371.200 143.000 371.200 L 138.400 371.200 138.400 372.600 M175.600 372.600 L 175.600 374.000 180.200 374.000 L 184.800 374.000 184.800 372.600 L 184.800 371.200 180.200 371.200 L 175.600 371.200 175.600 372.600 M195.600 372.600 L 195.600 374.000 200.200 374.000 L 204.800 374.000 204.800 372.600 L 204.800 371.200 200.200 371.200 L 195.600 371.200 195.600 372.600 M213.200 372.600 L 213.200 374.000 217.800 374.000 L 222.400 374.000 222.400 372.600 L 222.400 371.200 217.800 371.200 L 213.200 371.200 213.200 372.600 M227.200 372.600 L 227.200 374.000 238.600 374.000 L 250.000 374.000 250.000 372.600 L 250.000 371.200 238.600 371.200 L 227.200 371.200 227.200 372.600 M295.600 372.600 L 295.600 374.000 300.200 374.000 L 304.800 374.000 304.800 372.600 L 304.800 371.200 300.200 371.200 L 295.600 371.200 295.600 372.600 M309.600 372.600 L 309.600 374.000 314.000 374.000 L 318.400 374.000 318.400 372.600 L 318.400 371.200 314.000 371.200 L 309.600 371.200 309.600 372.600 M339.600 372.600 L 339.600 374.000 351.000 374.000 L 362.400 374.000 362.400 372.600 L 362.400 371.200 351.000 371.200 L 339.600 371.200 339.600 372.600 " stroke="none" fill="#fcd247" fill-rule="evenodd"></path><path id="path3" d="M126.180 310.200 C 126.180 317.900,126.234 320.993,126.299 317.074 C 126.365 313.155,126.365 306.855,126.299 303.074 C 126.234 299.293,126.180 302.500,126.180 310.200 M143.920 302.639 C 143.854 306.070,143.935 308.961,144.100 309.063 C 144.265 309.164,144.400 306.357,144.400 302.824 C 144.400 294.604,144.076 294.479,143.920 302.639 M153.380 310.200 C 153.380 317.900,153.434 320.993,153.499 317.074 C 153.565 313.155,153.565 306.855,153.499 303.074 C 153.434 299.293,153.380 302.500,153.380 310.200 M202.580 310.200 C 202.580 317.900,202.634 320.993,202.699 317.074 C 202.765 313.155,202.765 306.855,202.699 303.074 C 202.634 299.293,202.580 302.500,202.580 310.200 M305.780 310.200 C 305.780 317.900,305.834 320.993,305.899 317.074 C 305.965 313.155,305.965 306.855,305.899 303.074 C 305.834 299.293,305.780 302.500,305.780 310.200 M338.180 310.200 C 338.180 317.900,338.234 320.993,338.299 317.074 C 338.365 313.155,338.365 306.855,338.299 303.074 C 338.234 299.293,338.180 302.500,338.180 310.200 M360.400 301.200 L 360.400 306.000 353.700 306.088 L 347.000 306.177 352.888 306.299 L 358.776 306.421 358.901 311.311 L 359.027 316.200 359.114 311.347 C 359.193 306.868,359.262 306.477,360.000 306.284 C 360.753 306.087,361.341 296.400,360.600 296.400 C 360.490 296.400,360.400 298.560,360.400 301.200 M172.175 300.100 L 171.000 301.400 172.300 300.225 C 173.512 299.130,173.784 298.800,173.475 298.800 C 173.406 298.800,172.821 299.385,172.175 300.100 M275.375 300.100 L 274.200 301.400 275.500 300.225 C 276.712 299.130,276.984 298.800,276.675 298.800 C 276.606 298.800,276.021 299.385,275.375 300.100 M38.514 305.000 C 38.517 306.100,38.595 306.503,38.687 305.895 C 38.779 305.286,38.777 304.386,38.682 303.895 C 38.587 303.403,38.511 303.900,38.514 305.000 M49.424 305.562 C 49.296 305.768,49.930 305.831,50.900 305.707 C 53.152 305.419,53.321 305.200,51.290 305.200 C 50.387 305.200,49.547 305.363,49.424 305.562 M213.107 306.290 C 213.826 306.379,214.906 306.377,215.507 306.286 C 216.108 306.195,215.520 306.122,214.200 306.124 C 212.880 306.126,212.388 306.201,213.107 306.290 M302.534 310.800 C 302.534 312.450,302.605 313.125,302.691 312.300 C 302.778 311.475,302.778 310.125,302.691 309.300 C 302.605 308.475,302.534 309.150,302.534 310.800 M199.331 311.000 C 199.333 312.540,199.405 313.121,199.492 312.291 C 199.579 311.461,199.577 310.201,199.489 309.491 C 199.400 308.781,199.329 309.460,199.331 311.000 M334.909 310.400 C 334.909 311.390,334.987 311.795,335.082 311.300 C 335.178 310.805,335.178 309.995,335.082 309.500 C 334.987 309.005,334.909 309.410,334.909 310.400 M135.353 319.400 C 135.353 322.040,135.418 323.068,135.497 321.684 C 135.575 320.301,135.574 318.141,135.495 316.884 C 135.416 315.628,135.352 316.760,135.353 319.400 M347.206 316.500 C 347.200 317.144,347.769 317.193,354.300 317.110 L 361.400 317.021 354.617 316.900 C 349.815 316.815,347.744 316.637,347.524 316.290 C 347.307 315.949,347.210 316.012,347.206 316.500 M49.600 317.200 L 47.800 317.480 49.924 317.540 C 51.251 317.577,51.955 317.450,51.800 317.200 C 51.664 316.980,51.518 316.827,51.476 316.860 C 51.434 316.893,50.590 317.046,49.600 317.200 M212.500 319.876 C 212.885 319.976,213.515 319.976,213.900 319.876 C 214.285 319.775,213.970 319.693,213.200 319.693 C 212.430 319.693,212.115 319.775,212.500 319.876 M105.317 322.297 C 106.811 322.374,109.151 322.374,110.517 322.296 C 111.882 322.218,110.660 322.155,107.800 322.155 C 104.940 322.156,103.822 322.220,105.317 322.297 M105.780 357.400 C 105.780 365.100,105.834 368.193,105.899 364.274 C 105.965 360.355,105.965 354.055,105.899 350.274 C 105.834 346.493,105.780 349.700,105.780 357.400 M128.000 348.400 L 128.000 353.200 121.300 353.288 L 114.600 353.377 120.488 353.499 L 126.376 353.621 126.501 358.511 L 126.627 363.400 126.714 358.547 C 126.793 354.068,126.862 353.677,127.600 353.484 C 128.353 353.287,128.941 343.600,128.200 343.600 C 128.090 343.600,128.000 345.760,128.000 348.400 M130.144 347.200 C 130.144 349.290,130.212 350.145,130.294 349.100 C 130.376 348.055,130.376 346.345,130.294 345.300 C 130.212 344.255,130.144 345.110,130.144 347.200 M167.344 347.200 C 167.344 349.290,167.412 350.145,167.494 349.100 C 167.576 348.055,167.576 346.345,167.494 345.300 C 167.412 344.255,167.344 345.110,167.344 347.200 M195.380 357.400 C 195.380 365.100,195.434 368.193,195.499 364.274 C 195.565 360.355,195.565 354.055,195.499 350.274 C 195.434 346.493,195.380 349.700,195.380 357.400 M222.580 357.400 C 222.580 365.100,222.634 368.193,222.699 364.274 C 222.765 360.355,222.765 354.055,222.699 350.274 C 222.634 346.493,222.580 349.700,222.580 357.400 M226.980 357.400 C 226.980 365.100,227.034 368.193,227.099 364.274 C 227.165 360.355,227.165 354.055,227.099 350.274 C 227.034 346.493,226.980 349.700,226.980 357.400 M249.200 348.400 L 249.200 353.200 242.500 353.288 L 235.800 353.377 241.688 353.499 L 247.576 353.621 247.701 358.511 L 247.827 363.400 247.914 358.547 C 247.993 354.068,248.062 353.677,248.800 353.484 C 249.553 353.287,250.141 343.600,249.400 343.600 C 249.290 343.600,249.200 345.760,249.200 348.400 M264.980 357.400 C 264.980 365.100,265.034 368.193,265.099 364.274 C 265.165 360.355,265.165 354.055,265.099 350.274 C 265.034 346.493,264.980 349.700,264.980 357.400 M295.380 357.400 C 295.380 365.100,295.434 368.193,295.499 364.274 C 295.565 360.355,295.565 354.055,295.499 350.274 C 295.434 346.493,295.380 349.700,295.380 357.400 M309.380 357.400 C 309.380 365.100,309.434 368.193,309.499 364.274 C 309.565 360.355,309.565 354.055,309.499 350.274 C 309.434 346.493,309.380 349.700,309.380 357.400 M318.486 348.500 C 318.406 353.228,318.650 354.414,319.438 353.138 C 319.612 352.857,319.548 352.785,319.274 352.954 C 318.953 353.152,318.789 351.825,318.699 348.316 L 318.573 343.400 318.486 348.500 M339.380 357.400 C 339.380 365.100,339.434 368.193,339.499 364.274 C 339.565 360.355,339.565 354.055,339.499 350.274 C 339.434 346.493,339.380 349.700,339.380 357.400 M361.600 348.400 L 361.600 353.200 354.900 353.288 L 348.200 353.377 354.088 353.499 L 359.976 353.621 360.101 358.511 L 360.227 363.400 360.314 358.547 C 360.393 354.068,360.462 353.677,361.200 353.484 C 361.953 353.287,362.541 343.600,361.800 343.600 C 361.690 343.600,361.600 345.760,361.600 348.400 M138.174 363.800 C 138.175 369.520,138.231 371.804,138.299 368.876 C 138.368 365.948,138.367 361.268,138.299 358.476 C 138.230 355.684,138.174 358.080,138.174 363.800 M175.374 363.800 C 175.375 369.520,175.431 371.804,175.499 368.876 C 175.568 365.948,175.567 361.268,175.499 358.476 C 175.430 355.684,175.374 358.080,175.374 363.800 M101.761 362.400 C 101.761 365.810,101.822 367.205,101.897 365.500 C 101.972 363.795,101.972 361.005,101.897 359.300 C 101.822 357.595,101.761 358.990,101.761 362.400 M41.785 362.500 L 39.800 364.600 41.900 362.615 C 43.055 361.523,44.000 360.578,44.000 360.515 C 44.000 360.217,43.629 360.549,41.785 362.500 M292.093 363.600 C 292.093 364.370,292.175 364.685,292.276 364.300 C 292.376 363.915,292.376 363.285,292.276 362.900 C 292.175 362.515,292.093 362.830,292.093 363.600 M114.806 363.700 C 114.800 364.344,115.369 364.393,121.900 364.310 L 129.000 364.221 122.217 364.100 C 117.415 364.015,115.344 363.837,115.124 363.490 C 114.907 363.149,114.810 363.212,114.806 363.700 M236.006 363.700 C 236.000 364.344,236.569 364.393,243.100 364.310 L 250.200 364.221 243.417 364.100 C 238.615 364.015,236.544 363.837,236.324 363.490 C 236.107 363.149,236.010 363.212,236.006 363.700 M348.406 363.700 C 348.400 364.344,348.969 364.393,355.500 364.310 L 362.600 364.221 355.817 364.100 C 351.015 364.015,348.944 363.837,348.724 363.490 C 348.507 363.149,348.410 363.212,348.406 363.700 M38.534 368.400 C 38.534 370.050,38.605 370.725,38.691 369.900 C 38.778 369.075,38.778 367.725,38.691 366.900 C 38.605 366.075,38.534 366.750,38.534 368.400 M318.520 369.200 C 318.520 370.410,318.595 370.905,318.687 370.300 C 318.778 369.695,318.778 368.705,318.687 368.100 C 318.595 367.495,318.520 367.990,318.520 369.200 " stroke="none" fill="#fcaada" fill-rule="evenodd"></path><path id="path4" d="M50.505 302.687 C 51.114 302.779,52.014 302.777,52.505 302.682 C 52.997 302.587,52.500 302.511,51.400 302.514 C 50.300 302.517,49.897 302.595,50.505 302.687 M213.100 303.489 C 213.815 303.578,214.985 303.578,215.700 303.489 C 216.415 303.401,215.830 303.328,214.400 303.328 C 212.970 303.328,212.385 303.401,213.100 303.489 M347.264 304.700 C 347.326 306.163,347.332 306.168,347.489 304.910 L 347.649 303.620 354.125 303.499 L 360.600 303.379 353.900 303.289 L 347.200 303.200 347.264 304.700 M218.893 306.800 C 218.893 307.570,218.975 307.885,219.076 307.500 C 219.176 307.115,219.176 306.485,219.076 306.100 C 218.975 305.715,218.893 306.030,218.893 306.800 M73.628 309.700 C 73.648 310.903,73.745 311.174,73.959 310.627 C 74.242 309.905,74.093 308.000,73.753 308.000 C 73.669 308.000,73.613 308.765,73.628 309.700 M177.709 309.600 C 177.709 310.590,177.787 310.995,177.882 310.500 C 177.978 310.005,177.978 309.195,177.882 308.700 C 177.787 308.205,177.709 308.610,177.709 309.600 M252.028 309.700 C 252.048 310.903,252.145 311.174,252.359 310.627 C 252.642 309.905,252.493 308.000,252.153 308.000 C 252.069 308.000,252.013 308.765,252.028 309.700 M280.909 309.600 C 280.909 310.590,280.987 310.995,281.082 310.500 C 281.178 310.005,281.178 309.195,281.082 308.700 C 280.987 308.205,280.909 308.610,280.909 309.600 M135.200 313.176 C 135.200 314.069,135.270 314.800,135.356 314.800 C 135.677 314.800,135.832 311.944,135.523 311.752 C 135.345 311.642,135.200 312.283,135.200 313.176 M347.301 314.600 C 347.305 315.480,347.387 315.793,347.483 315.295 C 347.579 314.798,347.575 314.078,347.475 313.695 C 347.375 313.313,347.296 313.720,347.301 314.600 M212.500 317.076 C 212.885 317.176,213.515 317.176,213.900 317.076 C 214.285 316.975,213.970 316.893,213.200 316.893 C 212.430 316.893,212.115 316.975,212.500 317.076 M171.200 318.925 C 171.200 318.994,171.785 319.579,172.500 320.225 L 173.800 321.400 172.625 320.100 C 171.530 318.888,171.200 318.616,171.200 318.925 M274.400 318.925 C 274.400 318.994,274.985 319.579,275.700 320.225 L 277.000 321.400 275.825 320.100 C 274.730 318.888,274.400 318.616,274.400 318.925 M104.882 319.496 C 106.358 319.573,108.878 319.573,110.482 319.497 C 112.087 319.421,110.880 319.358,107.800 319.358 C 104.720 319.357,103.407 319.419,104.882 319.496 M181.583 325.700 C 183.241 327.466,183.600 327.784,183.600 327.483 C 183.600 327.419,182.745 326.564,181.700 325.583 L 179.800 323.800 181.583 325.700 M274.101 351.400 C 274.105 352.280,274.187 352.593,274.283 352.095 C 274.379 351.598,274.375 350.878,274.275 350.495 C 274.175 350.113,274.096 350.520,274.101 351.400 M114.864 351.900 C 114.926 353.363,114.932 353.368,115.089 352.110 L 115.249 350.820 121.725 350.699 L 128.200 350.579 121.500 350.489 L 114.800 350.400 114.864 351.900 M236.064 351.900 C 236.126 353.363,236.132 353.368,236.289 352.110 L 236.449 350.820 242.925 350.699 L 249.400 350.579 242.700 350.489 L 236.000 350.400 236.064 351.900 M348.464 351.900 C 348.526 353.363,348.532 353.368,348.689 352.110 L 348.849 350.820 355.325 350.699 L 361.800 350.579 355.100 350.489 L 348.400 350.400 348.464 351.900 M138.101 352.200 C 138.105 353.080,138.187 353.393,138.283 352.895 C 138.379 352.398,138.375 351.678,138.275 351.295 C 138.175 350.913,138.096 351.320,138.101 352.200 M175.301 352.200 C 175.305 353.080,175.387 353.393,175.483 352.895 C 175.579 352.398,175.575 351.678,175.475 351.295 C 175.375 350.913,175.296 351.320,175.301 352.200 M83.628 356.900 C 83.648 358.103,83.745 358.374,83.959 357.827 C 84.242 357.105,84.093 355.200,83.753 355.200 C 83.669 355.200,83.613 355.965,83.628 356.900 M114.901 361.800 C 114.905 362.680,114.987 362.993,115.083 362.495 C 115.179 361.998,115.175 361.278,115.075 360.895 C 114.975 360.513,114.896 360.920,114.901 361.800 M236.101 361.800 C 236.105 362.680,236.187 362.993,236.283 362.495 C 236.379 361.998,236.375 361.278,236.275 360.895 C 236.175 360.513,236.096 360.920,236.101 361.800 M274.101 361.800 C 274.105 362.680,274.187 362.993,274.283 362.495 C 274.379 361.998,274.375 361.278,274.275 360.895 C 274.175 360.513,274.096 360.920,274.101 361.800 M348.501 361.800 C 348.505 362.680,348.587 362.993,348.683 362.495 C 348.779 361.998,348.775 361.278,348.675 360.895 C 348.575 360.513,348.496 360.920,348.501 361.800 M52.575 362.900 L 51.400 364.200 52.700 363.025 C 53.912 361.930,54.184 361.600,53.875 361.600 C 53.806 361.600,53.221 362.185,52.575 362.900 M318.501 365.800 C 318.505 366.680,318.587 366.993,318.683 366.495 C 318.779 365.998,318.775 365.278,318.675 364.895 C 318.575 364.513,318.496 364.920,318.501 365.800 " stroke="none" fill="#fc948c" fill-rule="evenodd"></path></g></svg>