<svg xmlns="http://www.w3.org/2000/svg" viewBox="0 0 597.89 454.32"><defs><style>.cls-1{fill:#ff43da;}.cls-2{fill:#ffd443;}</style></defs><g id="Layer_2" data-name="Layer 2"><g id="Layer_1-2" data-name="Layer 1"><path class="cls-1" d="M108.51,306.34a108.65,108.65,0,1,1,88.87-171.55,9.5,9.5,0,1,1-15.51,11,89.74,89.74,0,1,0,16.36,57.14,9.5,9.5,0,1,1,19,1.09A108.67,108.67,0,0,1,108.51,306.34Zm382.82-10.69a108.71,108.71,0,0,0,0-215.56,9.5,9.5,0,0,0-2.46,18.84,89.68,89.68,0,1,1-87.8,136.51,9.5,9.5,0,1,0-16.12,10.05,108.91,108.91,0,0,0,92,51.11A109.42,109.42,0,0,0,491.33,295.65Zm-6.26-105.23a9.5,9.5,0,1,0-.8-19c-35.6,1.49-59-5-67.57-18.79-5.11-8.2-3.95-16.91-1.62-30.43,2-11.5,4.23-24.54.72-39.2C412,67.36,402.31,53,386.86,40.46c-19-15.51-47.49-29-84.62-40.06a9.5,9.5,0,0,0-5.43,18.21c60,17.91,93.85,41.07,100.51,68.83,2.6,10.87.87,20.92-1,31.55-2.45,14.24-5,29,4.23,43.72,11.58,18.56,36.49,27.94,74.12,27.94Q479.74,190.65,485.07,190.42ZM69.85,416.93a17.19,17.19,0,0,0,7.09-6.17,15.81,15.81,0,0,0,2.4-8.61,15.14,15.14,0,0,0-7-13q-7-4.89-20.7-4.89H15v68.51H53.6q14.1,0,21.53-4.94a15.81,15.81,0,0,0,7.44-13.95,16.5,16.5,0,0,0-3.33-10.38A20.55,20.55,0,0,0,69.85,416.93ZM48.51,400.39q7.53,0,7.54,5.09t-7.54,5.09H37.74V400.39Zm3.13,36.21H37.74V425.83h13.9q7.63,0,7.64,5.39T51.64,436.6Zm39.05,16.15h23.1V384.24H90.69Zm79.28,0h26.72l-28.77-38.37,27.4-30.14H170.17L147.66,409.1V384.24H125v68.51h22.71V435.82l5.19-5.78Zm52.56-17.42v-9h29V409.69h-29v-8h33V384.24H199.83v68.51h57V435.33Zm78.6,19a43,43,0,0,0,17.81-3.53,33,33,0,0,0,12.92-10.18l-14.58-13q-6.36,8-15,8-7.24,0-11.64-4.65t-4.41-12.48q0-7.83,4.41-12.48a15.3,15.3,0,0,1,11.64-4.65q8.61,0,15,8l14.58-13a33.12,33.12,0,0,0-12.92-10.18,43.12,43.12,0,0,0-17.81-3.52,41.71,41.71,0,0,0-19.58,4.55A34,34,0,0,0,267.9,400a37.28,37.28,0,0,0,0,37.09,34,34,0,0,0,13.65,12.73A41.71,41.71,0,0,0,301.13,454.32ZM383,384.24v24.27H361.61V384.24H338.52v68.51h23.09V427.5H383v25.25h23.1V384.24Zm85.54,68.51h23.89l-29.95-68.51H439.72l-30,68.51h23.49l4.6-11.94h26Zm-24.27-28.58,6.66-17.23,6.65,17.23Zm51.88,28.58h23.09V384.24H496.1Zm79.28-68.51v31.12l-26-31.12h-19v68.51h22.51V421.63l26,31.12h19V384.24Z"/><path class="cls-2" d="M106.05,197.41,269.12,74.7a6.77,6.77,0,0,1,10.22,2.57l15.41,33.32a6.77,6.77,0,0,0,9.3,3.16l152.17-80c6.95-3.65,13.5,5.44,7.85,10.88L299.27,203a6.77,6.77,0,0,1-10.86-2.09l-24.26-53.43a6.76,6.76,0,0,0-8.6-3.52L108,200.84A2,2,0,0,1,106.05,197.41Z"/></g></g></svg>