<svg xmlns="http://www.w3.org/2000/svg" viewBox="0 0 603.51 479.17"><defs><style>.cls-1{fill:none;stroke:#fff;stroke-linecap:round;stroke-miterlimit:10;stroke-width:19px;}.cls-2,.cls-3{fill:#fff;}.cls-3{font-size:97.88px;font-family:Montserrat-Black, Montserrat;font-weight:800;}</style></defs><g id="Layer_2" data-name="Layer 2"><g id="Layer_1-2" data-name="Layer 1"><path class="cls-1" d="M207.76,203.46a99,99,0,1,1-18.09-63.18"/><path class="cls-1" d="M490.12,89.51a99.2,99.2,0,1,1-97.08,151"/><path class="cls-1" d="M484.71,180.93c-26.09,1.09-62.2-1.11-76-23.26-13.33-21.35,4.67-44.24-2.09-72.44-5.4-22.53-27.44-52-107-75.73"/><path class="cls-2" d="M106.09,197.41,269.16,74.7a6.78,6.78,0,0,1,10.23,2.57l15.4,33.32a6.77,6.77,0,0,0,9.3,3.15l152.18-80c6.94-3.65,13.5,5.44,7.84,10.88L299.32,203a6.78,6.78,0,0,1-10.86-2.09L264.2,147.47a6.79,6.79,0,0,0-8.61-3.52L108,200.84A2,2,0,0,1,106.09,197.41Z"/><text class="cls-3" transform="translate(9.5 452.75)">BIKECHAIN</text></g></g></svg>